<svg width="24" height="24" viewBox="0 0 24 24" fill="none" xmlns="http://www.w3.org/2000/svg">
<path d="M10 4.5V17.5V18.5C10 18.5 10.5 20 15.5 20C20.5 20 21 18.5 21 18.5V16.5V4.5H10Z" fill="#FFC107"/>
<path d="M15.5 2C14.7777 2 14.0625 2.0388 13.3952 2.11418C12.728 2.18956 12.1216 2.30005 11.6109 2.43934C11.1002 2.57863 10.6951 2.74399 10.4187 2.92597C10.1423 3.10796 10 3.30302 10 3.5C10 3.69698 10.1423 3.89204 10.4187 4.07403C10.6951 4.25601 11.1002 4.42137 11.6109 4.56066C12.1216 4.69995 12.728 4.81044 13.3952 4.88582C14.0625 4.9612 14.7777 5 15.5 5C16.2223 5 16.9375 4.9612 17.6048 4.88582C18.272 4.81044 18.8784 4.69995 19.3891 4.56066C19.8998 4.42137 20.3049 4.25601 20.5813 4.07403C20.8577 3.89204 21 3.69698 21 3.5C21 3.30302 20.8577 3.10796 20.5813 2.92597C20.3049 2.74399 19.8998 2.57863 19.3891 2.43934C18.8784 2.30005 18.272 2.18956 17.6048 2.11418C16.9375 2.0388 16.2223 2 15.5 2Z" fill="#FFC107"/>
<path d="M10 6.5C10 6.5 10.5 8 15.5 8C20.5 8 21 6.5 21 6.5V8C21 8 20.5 9.5 15.5 9.5C10.5 9.5 10 8 10 8V6.5ZM10 11C10 11 10.5 12.5 15.5 12.5C20.5 12.5 21 11 21 11V9.5C21 9.5 20.5 11 15.5 11C10.5 11 10 9.5 10 9.5V11ZM10 14C10 14 10.5 15.5 15.5 15.5C20.5 15.5 21 14 21 14V12.5C21 12.5 20.5 14 15.5 14C10.5 14 10 12.5 10 12.5V14ZM10 17C10 17 10.5 18.5 15.5 18.5C20.5 18.5 21 17 21 17V15.5C21 15.5 20.5 17 15.5 17C10.5 17 10 15.5 10 15.5V17ZM10 5C10 5 10.5 6.5 15.5 6.5C20.5 6.5 21 5 21 5V3.5C21 3.5 20.5 5 15.5 5C10.5 5 10 3.5 10 3.5V5Z" fill="#FF9800"/>
<path d="M14 15.9495V18V19.5005V19.946C14.4505 19.979 14.9435 20 15.5 20C15.6765 20 15.835 19.994 16 19.99V19.5005V18V15.9495C16 13.3725 12.698 12.875 10.0285 12.5585L10 14.5075C12.3075 14.686 14 15.263 14 15.9495Z" fill="#F57C00"/>
<path d="M15.5 15.5C15.663 15.5 15.8105 15.4945 15.9625 15.491C15.854 14.856 15.513 14.372 15.0295 13.991C11.033 13.909 10.1755 12.8225 10.0285 12.5585L10.015 13.5085C12.315 13.688 14.0005 14.2645 14.0005 14.9495V15.4455C14.4505 15.479 14.9435 15.5 15.5 15.5ZM14 16.946V18V18.446C14.4505 18.479 14.9435 18.5 15.5 18.5C15.6765 18.5 15.835 18.494 16 18.49V18V16.99C15.835 16.994 15.6765 17 15.5 17C14.9435 17 14.4505 16.979 14 16.946Z" fill="#D66805"/>
<path d="M3 14.5H14V19.0005H3V14.5Z" fill="#CFD8DC"/>
<path d="M3 18C3 18 3.5 19.5 8.5 19.5C13.5 19.5 14 18 14 18V20C14 20 13.5 21.5 8.5 21.5C3.5 21.5 3 20 3 20V18ZM8.5 12.5C7.04131 12.5 5.64236 12.658 4.61091 12.9393C3.57946 13.2206 3 13.6022 3 14C3 14.3978 3.57946 14.7794 4.61091 15.0607C5.64236 15.342 7.04131 15.5 8.5 15.5C9.95869 15.5 11.3576 15.342 12.3891 15.0607C13.4205 14.7794 14 14.3978 14 14C14 13.6022 13.4205 13.2206 12.3891 12.9393C11.3576 12.658 9.95869 12.5 8.5 12.5Z" fill="#CFD8DC"/>
<path d="M3 14C3 14 3.5 15.5 8.5 15.5C13.5 15.5 14 14 14 14V15.5C14 15.5 13.5 17 8.5 17C3.5 17 3 15.5 3 15.5V14ZM3 17C3 17 3.5 18.5 8.5 18.5C13.5 18.5 14 17 14 17V18.5C14 18.5 13.5 20 8.5 20C3.5 20 3 18.5 3 18.5V17Z" fill="#90A4AE"/>
</svg>
