<svg width="24" height="24" viewBox="0 0 24 24" fill="none" xmlns="http://www.w3.org/2000/svg">
<path d="M11.4999 8C11.4499 5.3 13.4499 5.1 15.0499 4.9C16.9499 4.7 17.9999 4.5 17.9999 2.5H18.9999C18.9999 5.5 16.7999 5.75 15.1499 5.9C13.3999 6.1 12.4499 6.25 12.4999 7.95L11.4999 8Z" fill="#546E7A"/>
<path d="M22.5 19C22.5 20.65 21.5 21.5 20 21.5C18.5 21.5 17 17.5 15 17.5C13 17.5 11.5 17.5 9.5 17.5C7.5 17.5 5.5 21.5 4 21.5C2.5 21.5 1.5 20.65 1.5 19C1.5 19 1.5 7 6 7C8 7 8.55 8 9.5 8C11.55 8 11.95 8 14 8C14.95 8 16 7 18 7C22.5 7 22.5 19 22.5 19Z" fill="#CFD8DC"/>
<path d="M20.55 11.8C20.95 12.2 20.95 12.8 20.55 13.2L17.7 16.05C17.3 16.45 16.7 16.45 16.3 16.05L13.45 13.2C13.05 12.8 13.05 12.2 13.45 11.8L16.3 8.94999C16.7 8.54999 17.3 8.54999 17.7 8.94999L20.55 11.8Z" fill="black"/>
<path d="M18 10.5C18 11.05 17.55 11.5 17 11.5C16.45 11.5 16 11.05 16 10.5C16 9.95 16.45 9.5 17 9.5C17.55 9.5 18 9.95 18 10.5Z" fill="#FFC107"/>
<path d="M18 14.5C18 15.05 17.55 15.5 17 15.5C16.45 15.5 16 15.05 16 14.5C16 13.95 16.45 13.5 17 13.5C17.55 13.5 18 13.95 18 14.5Z" fill="#8BC34A"/>
<path d="M18 12.5C18 11.95 18.45 11.5 19 11.5C19.55 11.5 20 11.95 20 12.5C20 13.05 19.55 13.5 19 13.5C18.45 13.5 18 13.05 18 12.5Z" fill="#F44336"/>
<path d="M16 12.5C16 13.05 15.55 13.5 15 13.5C14.45 13.5 14 13.05 14 12.5C14 11.95 14.45 11.5 15 11.5C15.55 11.5 16 11.95 16 12.5Z" fill="#2196F3"/>
<path d="M6 10H8V12H6V10ZM8 12H10V14H8V12ZM4 12H6V14H4V12ZM6 14H8V16H6V14Z" fill="#78909C"/>
</svg>
