<svg width="122" height="15" viewBox="0 0 122 15" fill="none" xmlns="http://www.w3.org/2000/svg">
<g clip-path="url(#clip0_480_3681)">
<path d="M13.02 1.80001C13.4067 2.20001 13.7 2.67334 13.9 3.22001C14.1133 3.75334 14.22 4.32001 14.22 4.92001C14.22 5.56001 14.1067 6.17334 13.88 6.76001C13.6533 7.33334 13.3267 7.84001 12.9 8.28001C12.4867 8.70668 11.9867 9.04668 11.4 9.30001C10.8133 9.55334 10.16 9.68001 9.44 9.68001H4.2V13.06C4.2 13.5667 4.09333 13.96 3.88 14.24C3.68 14.5067 3.45333 14.7 3.2 14.82C2.90667 14.9667 2.57333 15.0467 2.2 15.06V9.68001C2.2 9.08001 2.38 8.60001 2.74 8.24001C3.11333 7.88001 3.6 7.70001 4.2 7.70001H9.44C9.89333 7.70001 10.2933 7.62001 10.64 7.46001C10.9867 7.30001 11.2733 7.09334 11.5 6.84001C11.74 6.57334 11.92 6.27334 12.04 5.94001C12.16 5.60668 12.22 5.26668 12.22 4.92001C12.22 4.21334 12.0067 3.63334 11.58 3.18001C11.0733 2.66001 10.36 2.40001 9.44 2.40001H4C3.49333 2.40001 3.10667 2.30001 2.84 2.10001C2.58667 1.88668 2.39333 1.65334 2.26 1.40001C2.11333 1.10668 2.02667 0.773339 2 0.400006H9.44C9.90667 0.400006 10.3267 0.446672 10.7 0.540005C11.0733 0.620006 11.4067 0.726672 11.7 0.860006C11.9933 0.993339 12.2467 1.14668 12.46 1.32001C12.6867 1.48001 12.8733 1.64001 13.02 1.80001ZM27.6203 13C28.1136 13 28.4936 13.1067 28.7603 13.32C29.027 13.52 29.227 13.7467 29.3603 14C29.507 14.2933 29.5936 14.6267 29.6203 15H19.8203C19.367 15 19.007 14.9 18.7403 14.7C18.487 14.4867 18.287 14.2533 18.1403 14C17.9803 13.7067 17.8736 13.3733 17.8203 13H27.6203ZM19.8203 10.84C19.447 10.8 19.1136 10.7067 18.8203 10.56C18.567 10.4267 18.3336 10.2267 18.1203 9.96001C17.9203 9.69334 17.8203 9.32001 17.8203 8.84001V2.34001C17.8203 1.84668 17.9203 1.46668 18.1203 1.20001C18.3336 0.933338 18.567 0.733339 18.8203 0.600005C19.1136 0.453339 19.447 0.366672 19.8203 0.340005V10.84ZM38.0697 3.02001C37.8564 2.59334 37.783 2.21334 37.8497 1.88001C37.9164 1.54668 38.0364 1.26668 38.2097 1.04001C38.4097 0.773339 38.6697 0.540005 38.9897 0.340005L46.3697 15.06C45.903 15.02 45.4497 14.9133 45.0097 14.74C44.6364 14.5933 44.2564 14.3733 43.8697 14.08C43.483 13.7733 43.1564 13.3467 42.8897 12.8C42.7164 12.44 42.4964 11.9933 42.2297 11.46C41.963 10.9133 41.6697 10.3267 41.3497 9.70001C41.043 9.07334 40.723 8.42668 40.3897 7.76001C40.0697 7.09334 39.7564 6.46001 39.4497 5.86001C39.1564 5.24668 38.8897 4.69334 38.6497 4.20001C38.4097 3.70668 38.2164 3.31334 38.0697 3.02001ZM35.7697 5.94001C36.0097 6.28668 36.203 6.64668 36.3497 7.02001C36.4697 7.34001 36.543 7.70668 36.5697 8.12001C36.5964 8.53334 36.503 8.95334 36.2897 9.38001C36.0764 9.82001 35.923 10.1467 35.8297 10.36C35.7364 10.56 35.6497 10.7533 35.5697 10.94C35.4897 11.1267 35.383 11.3533 35.2497 11.62C35.1297 11.8733 34.943 12.2667 34.6897 12.8C34.423 13.3467 34.0897 13.7733 33.6897 14.08C33.303 14.3867 32.923 14.6133 32.5497 14.76C32.1097 14.9333 31.6564 15.04 31.1897 15.08L35.7697 5.94001ZM56.2644 1.82001C56.611 1.43334 57.0044 1.14001 57.4444 0.940006C57.8977 0.726672 58.3244 0.573339 58.7244 0.480006C59.191 0.373339 59.6644 0.320005 60.1444 0.320005L54.0444 7.60001C53.9244 7.74668 53.791 7.87334 53.6444 7.98001C53.511 8.07334 53.3444 8.16001 53.1444 8.24001C52.9577 8.30668 52.7377 8.34001 52.4844 8.34001C52.231 8.34001 52.0044 8.30668 51.8044 8.24001C51.6177 8.16001 51.451 8.07334 51.3044 7.98001C51.1444 7.87334 51.0044 7.74668 50.8844 7.60001L44.7844 0.320005C45.2644 0.306672 45.7444 0.346672 46.2244 0.440005C46.6244 0.520005 47.051 0.666672 47.5044 0.880005C47.9577 1.09334 48.3577 1.40668 48.7044 1.82001C49.051 2.24668 49.4377 2.72001 49.8644 3.24001C50.291 3.76001 50.6977 4.25334 51.0844 4.72001C51.5244 5.25334 51.9844 5.80001 52.4644 6.36001C52.931 5.78668 53.391 5.22668 53.8444 4.68001C54.231 4.21334 54.6444 3.72001 55.0844 3.20001C55.5244 2.68001 55.9177 2.22001 56.2644 1.82001ZM51.4644 12.52C51.4644 12.04 51.5644 11.6667 51.7644 11.4C51.9777 11.1333 52.211 10.9333 52.4644 10.8C52.7577 10.6533 53.091 10.56 53.4644 10.52V13.08C53.4644 13.5867 53.3577 13.98 53.1444 14.26C52.9444 14.5267 52.7177 14.72 52.4644 14.84C52.171 14.9867 51.8377 15.0667 51.4644 15.08V12.52ZM72.7375 13C73.2308 13 73.6108 13.1067 73.8775 13.32C74.1442 13.52 74.3442 13.7467 74.4775 14C74.6242 14.2933 74.7175 14.6267 74.7575 15H64.9375C64.4842 15 64.1308 14.9 63.8775 14.7C63.6242 14.4867 63.4242 14.2533 63.2775 14C63.1175 13.7067 63.0042 13.3733 62.9375 13H72.7375ZM62.9375 2.40001C62.9775 2.02668 63.0708 1.69334 63.2175 1.40001C63.3508 1.14668 63.5442 0.920005 63.7975 0.720005C64.0642 0.506672 64.4442 0.400006 64.9375 0.400006H74.7575C74.6908 0.773339 74.5775 1.10668 74.4175 1.40001C74.2708 1.65334 74.0642 1.88668 73.7975 2.10001C73.5442 2.30001 73.1908 2.40001 72.7375 2.40001H62.9375ZM72.7375 6.70001C72.6842 7.07334 72.5775 7.40668 72.4175 7.70001C72.2708 7.95334 72.0642 8.18668 71.7975 8.40001C71.5442 8.60001 71.1975 8.70001 70.7575 8.70001H62.9375C62.9775 8.32668 63.0708 7.99334 63.2175 7.70001C63.3508 7.44668 63.5442 7.22001 63.7975 7.02001C64.0642 6.80668 64.4442 6.70001 64.9375 6.70001H72.7375ZM85.9825 0.400006C86.4492 0.400006 86.8692 0.446672 87.2425 0.540005C87.6158 0.620006 87.9492 0.726672 88.2425 0.860006C88.5358 0.993339 88.7892 1.14668 89.0025 1.32001C89.2292 1.48001 89.4158 1.64001 89.5625 1.80001C89.9492 2.20001 90.2492 2.67334 90.4625 3.22001C90.6758 3.75334 90.7825 4.32001 90.7825 4.92001C90.7825 5.52001 90.6758 6.09334 90.4625 6.64001C90.3558 6.93334 90.2225 7.20668 90.0625 7.46001C89.9158 7.71334 89.7425 7.95334 89.5425 8.18001C89.1025 8.66001 88.5892 9.03334 88.0025 9.30001C87.4158 9.55334 86.7425 9.68001 85.9825 9.68001H83.1825C83.7158 9.94668 84.2558 10.22 84.8025 10.5C85.3492 10.7667 85.8625 11.02 86.3425 11.26C86.8358 11.5 87.2758 11.72 87.6625 11.92C88.0625 12.1067 88.3758 12.2533 88.6025 12.36C89.0558 12.5867 89.3558 12.8533 89.5025 13.16C89.6492 13.4667 89.7225 13.76 89.7225 14.04C89.7225 14.3733 89.6492 14.7067 89.5025 15.04C88.0625 14.3333 86.7292 13.6733 85.5025 13.06C84.9825 12.8067 84.4492 12.5467 83.9025 12.28C83.3692 12.0133 82.8625 11.7667 82.3825 11.54C81.9158 11.3 81.4892 11.0867 81.1025 10.9C80.7292 10.7 80.4358 10.5467 80.2225 10.44C79.7825 10.2267 79.4758 9.96668 79.3025 9.66001C79.1292 9.35334 79.0292 9.05334 79.0025 8.76001C78.9625 8.41334 78.9958 8.06001 79.1025 7.70001H85.9825C86.4358 7.70001 86.8358 7.62001 87.1825 7.46001C87.5425 7.30001 87.8358 7.09334 88.0625 6.84001C88.3025 6.57334 88.4825 6.27334 88.6025 5.94001C88.7225 5.60668 88.7825 5.26668 88.7825 4.92001C88.7825 4.22668 88.5625 3.64668 88.1225 3.18001C87.6425 2.66001 86.9292 2.40001 85.9825 2.40001H80.5625C80.0558 2.40001 79.6692 2.30001 79.4025 2.10001C79.1492 1.88668 78.9558 1.65334 78.8225 1.40001C78.6758 1.10668 78.5892 0.773339 78.5625 0.400006H85.9825ZM103.573 13C104.027 13 104.38 13.1067 104.633 13.32C104.9 13.52 105.107 13.7467 105.253 14C105.413 14.2933 105.52 14.6267 105.573 15H93.7734C93.7734 14.8 93.8001 14.6067 93.8534 14.42C93.8934 14.26 93.9601 14.0933 94.0534 13.92C94.1601 13.7333 94.3068 13.5667 94.4934 13.42L99.3134 9.96001C99.3934 10.32 99.4201 10.68 99.3934 11.04C99.3668 11.3467 99.2934 11.68 99.1734 12.04C99.0668 12.3867 98.8668 12.7067 98.5734 13H103.573ZM96.1934 2.40001C95.7001 2.40001 95.3201 2.30001 95.0534 2.10001C94.8001 1.88668 94.6068 1.65334 94.4734 1.40001C94.3268 1.10668 94.2401 0.773339 94.2134 0.400006H101.413C102.293 0.400006 103 0.533339 103.533 0.800005C104.08 1.05334 104.5 1.36668 104.793 1.74001C105.087 2.11334 105.28 2.50668 105.373 2.92001C105.48 3.33334 105.533 3.70001 105.533 4.02001C105.533 4.51334 105.447 4.94001 105.273 5.30001C105.113 5.64668 104.92 5.94668 104.693 6.20001C104.48 6.44001 104.26 6.63334 104.033 6.78001C103.807 6.92668 103.64 7.03334 103.533 7.10001V4.02001C103.533 3.36668 103.36 2.93334 103.013 2.72001C102.667 2.50668 102.133 2.40001 101.413 2.40001H96.1934Z" fill="#3E8BFF"/>
<path d="M110.97 15V7.89001H113.35C114.224 7.89001 114.887 8.05669 115.34 8.39002C115.8 8.71669 116.03 9.19002 116.03 9.81002C116.03 10.2033 115.937 10.5333 115.75 10.8C115.564 11.0667 115.297 11.2533 114.95 11.36C115.344 11.4467 115.654 11.6333 115.88 11.92C116.107 12.2 116.22 12.54 116.22 12.94C116.22 13.6067 116.007 14.1167 115.58 14.47C115.154 14.8167 114.527 14.9933 113.7 15H110.97ZM113.67 13.95C114.057 13.95 114.354 13.86 114.56 13.68C114.774 13.5 114.88 13.2433 114.88 12.91C114.88 12.5767 114.784 12.3167 114.59 12.13C114.397 11.9433 114.12 11.85 113.76 11.85H112.32V13.95H113.67ZM113.43 10.95C113.87 10.95 114.187 10.87 114.38 10.71C114.58 10.55 114.68 10.3033 114.68 9.97002C114.68 9.62335 114.574 9.36668 114.36 9.20001C114.147 9.02668 113.817 8.94001 113.37 8.94001H112.32V10.95H113.43ZM119.608 15.09C119.102 15.09 118.648 14.9833 118.248 14.77C117.855 14.55 117.545 14.2433 117.318 13.85C117.098 13.45 116.988 12.9967 116.988 12.49V12.33C116.988 11.81 117.085 11.3467 117.278 10.94C117.478 10.5267 117.765 10.2033 118.138 9.97002C118.512 9.73669 118.948 9.62001 119.448 9.62001C120.155 9.62001 120.715 9.84668 121.128 10.3C121.542 10.7467 121.748 11.3633 121.748 12.15V12.7H118.308V12.79C118.355 13.1833 118.505 13.4967 118.758 13.73C119.012 13.9633 119.322 14.08 119.688 14.08C119.982 14.08 120.232 14.0333 120.438 13.94C120.652 13.84 120.838 13.69 120.998 13.49L121.598 14.19C121.398 14.47 121.122 14.69 120.768 14.85C120.415 15.01 120.028 15.09 119.608 15.09ZM120.478 11.88V11.76C120.478 11.4133 120.388 11.14 120.208 10.94C120.028 10.7333 119.772 10.63 119.438 10.63C119.125 10.63 118.872 10.74 118.678 10.96C118.485 11.18 118.362 11.4867 118.308 11.88H120.478Z" fill="#F2940A"/>
</g>
<defs>
<clipPath id="clip0_480_3681">
<rect width="122" height="15" fill="white"/>
</clipPath>
</defs>
</svg>
