<svg width="24" height="24" viewBox="0 0 24 24" fill="none" xmlns="http://www.w3.org/2000/svg">
<g clip-path="url(#clip0_505_3799)">
<path d="M21.8766 14.3944L21.2765 11.3935L23.6771 10.1932V7.19237L20.6763 7.79254L18.2756 5.39188H15.821C15.6799 6.2306 15.2462 6.99221 14.5968 7.54147C13.9475 8.09074 13.1245 8.39213 12.274 8.39213C11.4235 8.39213 10.6005 8.09074 9.95114 7.54147C9.30178 6.99221 8.86808 6.2306 8.72702 5.39188H5.07201L3.87168 6.59221L5.07201 7.19237V8.99287H2.67135L0.270691 13.194L2.67135 14.9945V17.5644L5.07201 18.5955V20.9962L6.87251 22.7967L11.6738 23.3968L12.274 20.9962H14.0745C14.0745 20.9962 19.476 24.117 19.476 23.997C19.476 23.877 21.8766 21.5963 21.8766 21.5963L20.0893 20.3828L23.7293 16.1162L21.8766 14.3944Z" fill="#42B346"/>
<path d="M12.274 0C11.0006 0 9.77935 0.505852 8.87893 1.40627C7.97851 2.3067 7.47266 3.52793 7.47266 4.80132C7.47266 7.45405 12.274 13.7942 12.274 13.7942C12.274 13.7942 17.0753 7.45405 17.0753 4.80132C17.0753 3.52793 16.5694 2.3067 15.669 1.40627C14.7686 0.505852 13.5474 0 12.274 0ZM12.274 7.19238C11.7992 7.19238 11.335 7.05158 10.9402 6.78779C10.5455 6.52401 10.2378 6.14907 10.0561 5.71041C9.87436 5.27175 9.82681 4.78905 9.91944 4.32337C10.0121 3.85769 10.2407 3.42993 10.5765 3.09419C10.9122 2.75846 11.3399 2.52982 11.8056 2.43719C12.2713 2.34456 12.754 2.3921 13.1927 2.5738C13.6313 2.7555 14.0063 3.0632 14.2701 3.45798C14.5338 3.85277 14.6746 4.31691 14.6746 4.79172C14.6746 5.42841 14.4217 6.03903 13.9715 6.48924C13.5213 6.93945 12.9107 7.19238 12.274 7.19238Z" fill="#FF3D00"/>
<path d="M7.47267 16.1948C8.13559 16.1948 8.673 15.6574 8.673 14.9945C8.673 14.3316 8.13559 13.7942 7.47267 13.7942C6.80974 13.7942 6.27234 14.3316 6.27234 14.9945C6.27234 15.6574 6.80974 16.1948 7.47267 16.1948Z" fill="#33691E"/>
</g>
<defs>
<clipPath id="clip0_505_3799">
<rect width="24" height="24" fill="white"/>
</clipPath>
</defs>
</svg>
