<svg width="22" height="22" viewBox="0 0 22 22" fill="none" xmlns="http://www.w3.org/2000/svg">
<path d="M8.47916 8.29584C10.1108 8.89167 11.8892 8.89167 13.5208 8.29584" stroke="currentColor" stroke-width="1.5" stroke-linecap="round" stroke-linejoin="round"/>
<path d="M15.4183 1.83331H6.58167C4.62917 1.83331 3.04333 3.42831 3.04333 5.37165V18.2875C3.04333 19.9375 4.22584 20.6341 5.67417 19.8366L10.1475 17.3525C10.6242 17.0866 11.3942 17.0866 11.8617 17.3525L16.335 19.8366C17.7833 20.6433 18.9658 19.9466 18.9658 18.2875V5.37165C18.9567 3.42831 17.3708 1.83331 15.4183 1.83331Z" stroke="currentColor" stroke-width="1.5" stroke-linecap="round" stroke-linejoin="round"/>
<path d="M15.4183 1.83331H6.58167C4.62917 1.83331 3.04333 3.42831 3.04333 5.37165V18.2875C3.04333 19.9375 4.22584 20.6341 5.67417 19.8366L10.1475 17.3525C10.6242 17.0866 11.3942 17.0866 11.8617 17.3525L16.335 19.8366C17.7833 20.6433 18.9658 19.9466 18.9658 18.2875V5.37165C18.9567 3.42831 17.3708 1.83331 15.4183 1.83331Z" stroke="currentColor" stroke-width="1.5" stroke-linecap="round" stroke-linejoin="round"/>
</svg>
