<svg width="22" height="22" viewBox="0 0 22 22" fill="none" xmlns="http://www.w3.org/2000/svg">
<path d="M7.79166 17.4166H7.33333C3.66666 17.4166 1.83333 16.5 1.83333 11.9166V7.33331C1.83333 3.66665 3.66666 1.83331 7.33333 1.83331H14.6667C18.3333 1.83331 20.1667 3.66665 20.1667 7.33331V11.9166C20.1667 15.5833 18.3333 17.4166 14.6667 17.4166H14.2083C13.9242 17.4166 13.6492 17.5541 13.475 17.7833L12.1 19.6166C11.495 20.4233 10.505 20.4233 9.9 19.6166L8.525 17.7833C8.37833 17.5816 8.03916 17.4166 7.79166 17.4166Z" stroke="currentColor" stroke-width="1.5" stroke-miterlimit="10" stroke-linecap="round" stroke-linejoin="round"/>
<path d="M6.41667 7.33331H15.5833" stroke="currentColor" stroke-width="1.5" stroke-linecap="round" stroke-linejoin="round"/>
<path d="M6.41667 11.9167H11.9167" stroke="currentColor" stroke-width="1.5" stroke-linecap="round" stroke-linejoin="round"/>
</svg>
